<svg width="17" height="17" viewBox="0 0 17 17" fill="none" xmlns="http://www.w3.org/2000/svg">
<path id="Vector-0_6" fill-rule="evenodd" clip-rule="evenodd" d="M16.8086 15.8843L12.7208 11.7973C15.1821 8.84237 14.8838 4.47411 12.0437 1.88109C9.20365 -0.711925 4.82635 -0.612444 2.10699 2.10692C-0.61238 4.82629 -0.711861 9.20358 1.88116 12.0437C4.47418 14.8838 8.84243 15.182 11.7974 12.7207L15.8844 16.8085C16.1396 17.0637 16.5534 17.0637 16.8086 16.8085C17.0638 16.5533 17.0638 16.1395 16.8086 15.8843ZM1.32438 7.20253C1.32438 3.95609 3.95615 1.32432 7.2026 1.32432C10.449 1.32432 13.0808 3.95609 13.0808 7.20253C13.0808 10.449 10.449 13.0807 7.2026 13.0807C3.95764 13.0771 1.32798 10.4475 1.32438 7.20253Z" fill="white"/>
</svg>
