<svg width="17" height="17" viewBox="0 0 17 17" fill="none" xmlns="http://www.w3.org/2000/svg">
<path id="Vector-0_6" fill-rule="evenodd" clip-rule="evenodd" d="M16.8087 15.8845L12.7209 11.7975C15.1822 8.8425 14.884 4.47421 12.0438 1.88117C9.20372 -0.711866 4.82639 -0.612384 2.107 2.107C-0.612384 4.82639 -0.711866 9.20372 1.88117 12.0438C4.47421 14.884 8.8425 15.1822 11.7975 12.7209L15.8845 16.8087C16.1397 17.0639 16.5535 17.0639 16.8087 16.8087C17.0639 16.5535 17.0639 16.1397 16.8087 15.8845ZM1.32439 7.20265C1.32439 3.95618 3.95618 1.32439 7.20265 1.32439C10.4491 1.32439 13.0809 3.95618 13.0809 7.20265C13.0809 10.4491 10.4491 13.0809 7.20265 13.0809C3.95767 13.0773 1.32799 10.4476 1.32439 7.20265Z" fill="white"/>
</svg>
