<svg width="18" height="18" viewBox="0 0 18 18" fill="none" xmlns="http://www.w3.org/2000/svg">
<g id="Forward">
<path id="Union" d="M3.90649 9.75003H12.284L8.62399 13.41C8.33149 13.7025 8.33149 14.1825 8.62399 14.475C8.91649 14.7675 9.38899 14.7675 9.68149 14.475L14.624 9.53253C14.9165 9.24003 14.9165 8.76753 14.624 8.47503L9.68899 3.52503C9.54887 3.38459 9.35863 3.30566 9.16024 3.30566C8.96186 3.30566 8.77162 3.38459 8.63149 3.52503C8.33899 3.81753 8.33899 4.29003 8.63149 4.58253L12.284 8.25003H3.90649C3.49399 8.25003 3.15649 8.58753 3.15649 9.00003C3.15649 9.41253 3.49399 9.75003 3.90649 9.75003Z" fill="white"/>
</g>
</svg>
