<svg width="18" height="18" viewBox="0 0 18 18" fill="none" xmlns="http://www.w3.org/2000/svg">
<g id="Eye, Show">
<path id="Union" d="M16.4399 8.7C14.9249 5.1825 12.0749 3 8.99993 3C5.92493 3 3.07493 5.1825 1.55993 8.7C1.51863 8.79462 1.49731 8.89676 1.49731 9C1.49731 9.10324 1.51863 9.20538 1.55993 9.3C3.07493 12.8175 5.92493 15 8.99993 15C12.0749 15 14.9249 12.8175 16.4399 9.3C16.4812 9.20538 16.5025 9.10324 16.5025 9C16.5025 8.89676 16.4812 8.79462 16.4399 8.7ZM8.99993 13.5C6.62243 13.5 4.37243 11.7825 3.07493 9C4.37243 6.2175 6.62243 4.5 8.99993 4.5C11.3774 4.5 13.6274 6.2175 14.9249 9C13.6274 11.7825 11.3774 13.5 8.99993 13.5ZM8.99993 6C8.40658 6 7.82657 6.17595 7.33322 6.50559C6.83987 6.83524 6.45535 7.30377 6.22829 7.85195C6.00123 8.40013 5.94182 9.00333 6.05757 9.58527C6.17333 10.1672 6.45905 10.7018 6.87861 11.1213C7.29816 11.5409 7.83271 11.8266 8.41466 11.9424C8.9966 12.0581 9.5998 11.9987 10.148 11.7716C10.6962 11.5446 11.1647 11.1601 11.4943 10.6667C11.824 10.1734 11.9999 9.59334 11.9999 9C11.9999 8.20435 11.6839 7.44129 11.1212 6.87868C10.5586 6.31607 9.79558 6 8.99993 6ZM8.99993 10.5C8.70326 10.5 8.41325 10.412 8.16657 10.2472C7.9199 10.0824 7.72764 9.84811 7.61411 9.57403C7.50058 9.29994 7.47087 8.99834 7.52875 8.70736C7.58663 8.41639 7.72949 8.14912 7.93927 7.93934C8.14905 7.72956 8.41632 7.5867 8.70729 7.52882C8.99826 7.47094 9.29986 7.50065 9.57395 7.61418C9.84804 7.72771 10.0823 7.91997 10.2471 8.16665C10.412 8.41332 10.4999 8.70333 10.4999 9C10.4999 9.39782 10.3419 9.77936 10.0606 10.0607C9.77928 10.342 9.39775 10.5 8.99993 10.5Z" fill="#111113"/>
</g>
</svg>
