<svg width="17" height="17" viewBox="0 0 17 17" fill="none" xmlns="http://www.w3.org/2000/svg">
<path id="Vector-0_6" fill-rule="evenodd" clip-rule="evenodd" d="M16.8086 15.8844L12.7208 11.7974C15.1821 8.8424 14.8839 4.47413 12.0438 1.8811C9.20368 -0.711928 4.82637 -0.612446 2.107 2.10693C-0.612382 4.82631 -0.711864 9.20362 1.88117 12.0437C4.47419 14.8838 8.84246 15.1821 11.7974 12.7208L15.8844 16.8086C16.1397 17.0638 16.5534 17.0638 16.8086 16.8086C17.0638 16.5534 17.0638 16.1396 16.8086 15.8844ZM1.32439 7.20256C1.32439 3.9561 3.95616 1.32432 7.20262 1.32432C10.4491 1.32432 13.0809 3.9561 13.0809 7.20256C13.0809 10.449 10.4491 13.0808 7.20262 13.0808C3.95766 13.0772 1.32799 10.4475 1.32439 7.20256Z" fill="white"/>
</svg>
