<svg width="20" height="20" viewBox="0 0 20 20" fill="none" xmlns="http://www.w3.org/2000/svg">
<path id="Vector - 0" fill-rule="evenodd" clip-rule="evenodd" d="M19.7748 18.6876L14.9656 13.8793C17.8613 10.4029 17.5104 5.26371 14.1691 2.21309C10.8278 -0.837538 5.67802 -0.7205 2.47875 2.47877C-0.720516 5.67804 -0.837553 10.8278 2.21307 14.1691C5.2637 17.5104 10.4028 17.8613 13.8793 14.9656L18.6875 19.7748C18.9878 20.0751 19.4746 20.0751 19.7748 19.7748C20.0751 19.4746 20.0751 18.9878 19.7748 18.6876ZM1.55804 8.47363C1.55804 4.65427 4.65425 1.55806 8.47362 1.55806C12.293 1.55806 15.3892 4.65427 15.3892 8.47363C15.3892 12.293 12.293 15.3892 8.47362 15.3892C4.656 15.385 1.56228 12.2912 1.55804 8.47363Z" fill="#ADADAD"/>
</svg>
