<svg width="17" height="17" viewBox="0 0 17 17" fill="none" xmlns="http://www.w3.org/2000/svg">
<path id="Vector-0_6" fill-rule="evenodd" clip-rule="evenodd" d="M16.8086 15.8844L12.7208 11.7974C15.1821 8.84243 14.8838 4.47418 12.0437 1.88116C9.20365 -0.711861 4.82635 -0.61238 2.10699 2.10699C-0.61238 4.82635 -0.711861 9.20365 1.88116 12.0437C4.47418 14.8838 8.84243 15.1821 11.7974 12.7208L15.8844 16.8086C16.1396 17.0638 16.5534 17.0638 16.8086 16.8086C17.0638 16.5534 17.0638 16.1396 16.8086 15.8844ZM1.32438 7.2026C1.32438 3.95615 3.95615 1.32438 7.2026 1.32438C10.449 1.32438 13.0808 3.95615 13.0808 7.2026C13.0808 10.449 10.449 13.0808 7.2026 13.0808C3.95764 13.0772 1.32798 10.4476 1.32438 7.2026Z" fill="white"/>
</svg>
