<svg width="20" height="20" viewBox="0 0 20 20" fill="none" xmlns="http://www.w3.org/2000/svg">
<g id="Depth7,Frame0_10" clip-path="url(#clip0_0_76)">
<path id="Vector-0_7" fill-rule="evenodd" clip-rule="evenodd" d="M17.3547 4.59922C17.2359 4.45709 17.0602 4.37497 16.875 4.375H4.27187L3.88984 2.27656C3.78186 1.68219 3.26426 1.25009 2.66016 1.25H1.25C0.904822 1.25 0.625 1.52982 0.625 1.875C0.625 2.22018 0.904822 2.5 1.25 2.5H2.65625L4.65312 13.4602C4.71195 13.7852 4.8556 14.0889 5.06953 14.3406C4.24996 15.1061 4.14205 16.3674 4.81967 17.261C5.49729 18.1546 6.74093 18.391 7.69916 17.8084C8.6574 17.2257 9.01981 16.0128 8.53828 15H12.0867C11.9469 15.2927 11.8745 15.6131 11.875 15.9375C11.875 17.1456 12.8544 18.125 14.0625 18.125C15.2706 18.125 16.25 17.1456 16.25 15.9375C16.25 14.7294 15.2706 13.75 14.0625 13.75H6.49766C6.1956 13.75 5.9368 13.5339 5.88281 13.2367L5.63516 11.875H14.6977C15.6038 11.8749 16.3802 11.2267 16.5422 10.3352L17.4922 5.11172C17.5247 4.92894 17.4744 4.74115 17.3547 4.59922ZM7.5 15.9375C7.5 16.4553 7.08027 16.875 6.5625 16.875C6.04473 16.875 5.625 16.4553 5.625 15.9375C5.625 15.4197 6.04473 15 6.5625 15C7.08027 15 7.5 15.4197 7.5 15.9375ZM15 15.9375C15 16.4553 14.5803 16.875 14.0625 16.875C13.5447 16.875 13.125 16.4553 13.125 15.9375C13.125 15.4197 13.5447 15 14.0625 15C14.5803 15 15 15.4197 15 15.9375ZM15.3125 10.1117C15.2584 10.4098 14.9982 10.6261 14.6953 10.625H5.40781L4.49922 5.625H16.1258L15.3125 10.1117Z" fill="white"/>
</g>
<defs>
<clipPath id="clip0_0_76">
<rect width="20" height="20" fill="white"/>
</clipPath>
</defs>
</svg>
