<svg width="17" height="17" viewBox="0 0 17 17" fill="none" xmlns="http://www.w3.org/2000/svg">
<path id="Vector-0_6" fill-rule="evenodd" clip-rule="evenodd" d="M16.8084 15.8845L12.7206 11.7975C15.1819 8.8425 14.8837 4.47421 12.0436 1.88117C9.20346 -0.711866 4.82614 -0.612384 2.10675 2.107C-0.61264 4.82639 -0.712122 9.20372 1.88092 12.0438C4.47396 14.884 8.84224 15.1822 11.7972 12.7209L15.8843 16.8087C16.1395 17.0639 16.5532 17.0639 16.8084 16.8087C17.0637 16.5535 17.0637 16.1397 16.8084 15.8845ZM1.32414 7.20265C1.32414 3.95618 3.95592 1.32439 7.2024 1.32439C10.4489 1.32439 13.0807 3.95618 13.0807 7.20265C13.0807 10.4491 10.4489 13.0809 7.2024 13.0809C3.95742 13.0773 1.32774 10.4476 1.32414 7.20265Z" fill="white"/>
</svg>
