<svg width="17" height="17" viewBox="0 0 17 17" fill="none" xmlns="http://www.w3.org/2000/svg">
<path id="Vector-0_6" fill-rule="evenodd" clip-rule="evenodd" d="M16.8084 15.8843L12.7206 11.7972C15.1819 8.84224 14.8837 4.47396 12.0436 1.88092C9.20346 -0.712122 4.82614 -0.61264 2.10675 2.10675C-0.61264 4.82614 -0.712122 9.20346 1.88092 12.0436C4.47396 14.8837 8.84224 15.1819 11.7972 12.7206L15.8843 16.8084C16.1395 17.0637 16.5532 17.0637 16.8084 16.8084C17.0637 16.5532 17.0637 16.1395 16.8084 15.8843ZM1.32414 7.2024C1.32414 3.95592 3.95592 1.32414 7.2024 1.32414C10.4489 1.32414 13.0807 3.95592 13.0807 7.2024C13.0807 10.4489 10.4489 13.0807 7.2024 13.0807C3.95742 13.0771 1.32774 10.4474 1.32414 7.2024Z" fill="white"/>
</svg>
